<svg xmlns="http://www.w3.org/2000/svg" width="192" height="192" preserveAspectRatio="xMidYMid meet" viewBox="0 0 172 172"><g transform="translate(6.000000, 6.000000)"><ellipse stroke-width="11.1037789" stroke="#37389d" fill="#38dbf3" cx="79.8819898" cy="79.8817733" rx="79.8819898" ry="79.8817733"></ellipse><path d="M41.0643623,61.7893943 C40.9250911,63.7376935 35.496363,70.4263077 34.1058667,71.3922717 C31.2059647,73.4063734 30.0739934,72.4831588 27.5475191,74.4715398 C25.9462587,75.7317727 23.9451871,77.0791829 21.4935309,77.550808 C20.1364344,77.8116717 20.7366551,76.5293959 17.6834418,78.4900543 C16.3622469,82.7923224 21.7054972,85.9990392 24.3637055,88.5104499 C30.2906687,88.5626963 33.6872246,94.0621306 37.7242304,98.5308429 C39.0779859,98.7569809 39.5639748,98.0488632 41.0643623,98.5308429 C42.4378246,98.9724092 44.0140325,100.203583 44.4044942,101.870975 C43.9312827,106.562786 39.9463207,109.548661 37.7242304,111.89137 C33.5096131,118.961213 31.0439693,124.212951 31.0439693,131.932161 C30.6074119,133.592205 27.2362189,135.046165 25.9642951,134.854774 C23.4605345,134.478342 23.5056253,125.8264 23.389723,124.486338 C24.5632784,119.228465 23.4713548,114.885212 23.3813047,110.656185 C19.506581,106.987269 19.5892966,102.483847 17.6834628,98.5308429 C17.9420904,93.2500962 14.2157824,91.1446711 11.0031991,88.5104499 C8.54787039,86.5026961 6.37010274,84.7220722 4.32293795,81.8301861 C-0.726766939,78.3437748 -0.364630399,48.5177252 11.0031991,41.7486031 C13.1632645,40.6677364 12.1304956,37.8045753 14.3433309,35.068342 C18.3573363,31.1023055 24.2342207,31.7282101 27.7038585,31.7282101 C32.6257096,28.5292145 35.9162521,28.2910225 41.064386,28.3880782 C45.369298,32.8084401 46.8003866,30.8096809 51.084779,28.3880782 C53.7191423,28.0183257 56.8528536,29.460929 57.7650427,31.7282101 C58.5716078,35.7621538 55.6805583,39.4457492 54.4249108,41.7486031 C55.425911,47.6566933 53.4987867,48.1372603 50.9805676,51.1427232 C50.1682465,51.8114193 49.9715148,52.8822655 47.7446471,55.1091306 C46.6313829,56.2223974 45.475364,57.2949115 44.4045178,58.4492625 C41.9638818,61.0799507 41.5744225,61.2793552 41.064386,61.7893943" stroke-width="10" stroke="#37389d" fill="#44FDAF" stroke-linecap="round" stroke-linejoin="round"></path><path d="M92.3810142,76.7876684 C91.603766,75.7973201 88.2786635,70.6885894 89.0408823,70.1074073 C90.7763155,65.2675977 87.3694366,62.2384504 95.7211461,63.427143 C100.351283,63.7280571 93.0916811,56.1681674 96.0833826,52.0041733 C94.5200022,49.1171173 101.064896,49.0160023 102.40141,46.7264863 C106.052016,45.4454259 107.266732,48.8111759 109.081674,50.0666181 C112.717821,51.3940952 114.006355,47.9469871 115.761936,46.7264863 C116.906599,46.21077 117.475757,46.761896 119.102067,46.7264863 C122.833998,46.6453281 125.579252,43.6164885 125.782331,43.3863544 C127.46409,41.4791395 126.611687,40.7159183 129.122463,36.7060906 C130.673332,32.5980155 133.574665,34.1971081 135.802727,33.3659588 C137.544332,37.120976 140.37363,35.7029412 142.482991,36.7060906 C153.100437,47.3990917 161.196463,64.4225792 159.183982,73.4475392 C158.03264,75.4957063 160.472271,77.4045917 159.183982,80.1278003 C156.976589,82.5455173 154.586058,84.816463 152.50372,86.808064 C154.669395,91.1867655 150.118535,89.1932494 149.163589,90.1481959 C144.855151,88.5329085 144.681131,83.5674687 142.483325,83.4679322 C139.848296,83.3486809 138.243487,96.1247115 135.643528,95.8638478 C135.059673,95.8053928 133.135706,90.2032309 131.297966,88.0154454 C129.752603,83.9895071 128.31915,84.5946736 125.782665,83.4679322 C122.161881,85.7363865 123.866372,91.8555248 122.472713,94.7714822 C118.36777,96.5945557 116.816602,97.6547369 115.76227,100.168592 C115.831411,102.219097 115.863811,103.249862 115.76227,103.508723 C112.091198,105.25967 113.470511,108.014787 112.422137,110.188987 C112.22107,113.642682 108.44805,127.080453 105.741876,126.586114 C102.003724,124.324547 99.2406205,113.934883 97.6052184,110.551945 C96.9886292,107.496058 97.5794372,105.660105 97.0668278,102.354378 C95.3204114,94.9793103 93.4029077,97.1537685 88.3416091,97.1537685 C85.9951666,96.0729018 85.6239277,89.1815611 85.7010845,86.808064 C85.7835844,84.2722375 87.1837698,82.4906113 89.0412164,80.1278003 C90.4961789,78.2763675 91.223993,77.3504827 92.3810142,76.7876684" stroke-width="10" stroke="#37389d" fill="#44FDAF" stroke-linecap="round" stroke-linejoin="round"></path><path d="M132.210742,116.563778 C128.269053,118.498716 126.385217,118.076524 125.530478,119.90391 C124.867462,121.321794 125.398889,122.862932 125.530478,123.244041 C126.341797,125.595161 128.620101,126.490316 128.87061,126.584173 C131.755816,127.664705 133.342713,125.400097 135.550874,126.584173 C137.235636,127.487678 136.972434,129.160415 138.891005,129.924305 C138.568262,129.125 143.600832,127.05337 145.382985,124.902922 C148.580789,120.247354 146.371902,116.507789 145.571267,113.223646 C145.151412,113.079353 145.110996,113.184567 142.231135,113.223646 C139.788497,113.256715 139.537985,113.184567 138.891003,113.223646 C136.335467,113.37796 135.870187,114.767455 132.210742,116.563778 Z" stroke-width="10" stroke="#37389d" fill="#44FDAF" stroke-linecap="round" stroke-linejoin="round"></path></g></svg>